<svg xmlns="http://www.w3.org/2000/svg" version="1.1" xmlns:xlink="http://www.w3.org/1999/xlink" xmlns:svgjs="http://svgjs.com/svgjs" width="1440" height="560" preserveAspectRatio="none" viewBox="0 0 1440 560"><g mask="url(&quot;#SvgjsMask5293&quot;)" fill="none"><rect width="1440" height="560" x="0" y="0" fill="url(#SvgjsLinearGradient5294)"></rect><path d="M57 43L56 191" stroke-width="10" stroke="url(#SvgjsLinearGradient5295)" stroke-linecap="round" class="Down"></path><path d="M1248 483L1247 740" stroke-width="8" stroke="url(#SvgjsLinearGradient5296)" stroke-linecap="round" class="Up"></path><path d="M881 347L880 181" stroke-width="10" stroke="url(#SvgjsLinearGradient5297)" stroke-linecap="round" class="Down"></path><path d="M1128 234L1127 602" stroke-width="6" stroke="url(#SvgjsLinearGradient5297)" stroke-linecap="round" class="Down"></path><path d="M1200 354L1199 501" stroke-width="8" stroke="url(#SvgjsLinearGradient5298)" stroke-linecap="round" class="Down"></path><path d="M1003 392L1002 654" stroke-width="10" stroke="url(#SvgjsLinearGradient5298)" stroke-linecap="round" class="Down"></path><path d="M1262 144L1261 485" stroke-width="10" stroke="url(#SvgjsLinearGradient5299)" stroke-linecap="round" class="Up"></path><path d="M982 344L981 1" stroke-width="8" stroke="url(#SvgjsLinearGradient5299)" stroke-linecap="round" class="Up"></path><path d="M1077 405L1076 140" stroke-width="6" stroke="url(#SvgjsLinearGradient5299)" stroke-linecap="round" class="Up"></path><path d="M111 63L110 337" stroke-width="6" stroke="url(#SvgjsLinearGradient5295)" stroke-linecap="round" class="Down"></path><path d="M543 536L542 917" stroke-width="6" stroke="url(#SvgjsLinearGradient5300)" stroke-linecap="round" class="Up"></path><path d="M728 92L727 305" stroke-width="10" stroke="url(#SvgjsLinearGradient5299)" stroke-linecap="round" class="Up"></path><path d="M307 291L306 -90" stroke-width="10" stroke="url(#SvgjsLinearGradient5301)" stroke-linecap="round" class="Down"></path><path d="M1238 244L1237 460" stroke-width="6" stroke="url(#SvgjsLinearGradient5301)" stroke-linecap="round" class="Down"></path><path d="M182 431L181 32" stroke-width="6" stroke="url(#SvgjsLinearGradient5299)" stroke-linecap="round" class="Up"></path><path d="M391 526L390 849" stroke-width="6" stroke="url(#SvgjsLinearGradient5302)" stroke-linecap="round" class="Up"></path><path d="M1234 111L1233 428" stroke-width="8" stroke="url(#SvgjsLinearGradient5299)" stroke-linecap="round" class="Up"></path><path d="M632 482L631 273" stroke-width="10" stroke="url(#SvgjsLinearGradient5297)" stroke-linecap="round" class="Down"></path><path d="M989 2L988 -244" stroke-width="10" stroke="url(#SvgjsLinearGradient5301)" stroke-linecap="round" class="Down"></path><path d="M813 550L812 317" stroke-width="6" stroke="url(#SvgjsLinearGradient5301)" stroke-linecap="round" class="Down"></path><path d="M1274 372L1273 120" stroke-width="10" stroke="url(#SvgjsLinearGradient5297)" stroke-linecap="round" class="Down"></path><path d="M306 500L305 154" stroke-width="10" stroke="url(#SvgjsLinearGradient5299)" stroke-linecap="round" class="Up"></path><path d="M1076 441L1075 726" stroke-width="6" stroke="url(#SvgjsLinearGradient5298)" stroke-linecap="round" class="Down"></path><path d="M345 353L344 558" stroke-width="10" stroke="url(#SvgjsLinearGradient5297)" stroke-linecap="round" class="Down"></path><path d="M1065 283L1064 512" stroke-width="8" stroke="url(#SvgjsLinearGradient5302)" stroke-linecap="round" class="Up"></path><path d="M1424 325L1423 92" stroke-width="8" stroke="url(#SvgjsLinearGradient5301)" stroke-linecap="round" class="Down"></path><path d="M742 344L741 187" stroke-width="6" stroke="url(#SvgjsLinearGradient5295)" stroke-linecap="round" class="Down"></path><path d="M1022 435L1021 76" stroke-width="8" stroke="url(#SvgjsLinearGradient5296)" stroke-linecap="round" class="Up"></path><path d="M698 553L697 740" stroke-width="8" stroke="url(#SvgjsLinearGradient5302)" stroke-linecap="round" class="Up"></path><path d="M1318 30L1317 283" stroke-width="10" stroke="url(#SvgjsLinearGradient5298)" stroke-linecap="round" class="Down"></path><path d="M519 415L518 13" stroke-width="8" stroke="url(#SvgjsLinearGradient5298)" stroke-linecap="round" class="Down"></path><path d="M1393 355L1392 196" stroke-width="8" stroke="url(#SvgjsLinearGradient5296)" stroke-linecap="round" class="Up"></path><path d="M1055 58L1054 -248" stroke-width="10" stroke="url(#SvgjsLinearGradient5298)" stroke-linecap="round" class="Down"></path><path d="M236 239L235 491" stroke-width="6" stroke="url(#SvgjsLinearGradient5302)" stroke-linecap="round" class="Up"></path><path d="M1438 84L1437 244" stroke-width="10" stroke="url(#SvgjsLinearGradient5302)" stroke-linecap="round" class="Up"></path><path d="M1006 123L1005 496" stroke-width="10" stroke="url(#SvgjsLinearGradient5298)" stroke-linecap="round" class="Down"></path></g><defs><mask id="SvgjsMask5293"><rect width="1440" height="560" fill="#ffffff"></rect></mask><linearGradient x1="50%" y1="100%" x2="50%" y2="0%" gradientUnits="userSpaceOnUse" id="SvgjsLinearGradient5294"><stop stop-color="#0e2a47" offset="0"></stop><stop stop-color="rgba(129, 40, 163, 1)" offset="1"></stop></linearGradient><linearGradient x1="0%" y1="0%" x2="0%" y2="100%" id="SvgjsLinearGradient5295"><stop stop-color="rgba(28, 83, 142, 0)" offset="0"></stop><stop stop-color="#1c538e" offset="1"></stop></linearGradient><linearGradient x1="0%" y1="100%" x2="0%" y2="0%" id="SvgjsLinearGradient5296"><stop stop-color="rgba(51, 198, 189, 0)" offset="0"></stop><stop stop-color="rgba(51, 198, 189, 1)" offset="1"></stop></linearGradient><linearGradient x1="0%" y1="0%" x2="0%" y2="100%" id="SvgjsLinearGradient5297"><stop stop-color="rgba(51, 198, 189, 0)" offset="0"></stop><stop stop-color="rgba(51, 198, 189, 1)" offset="1"></stop></linearGradient><linearGradient x1="0%" y1="0%" x2="0%" y2="100%" id="SvgjsLinearGradient5298"><stop stop-color="rgba(154, 59, 164, 0)" offset="0"></stop><stop stop-color="rgba(154, 59, 164, 1)" offset="1"></stop></linearGradient><linearGradient x1="0%" y1="100%" x2="0%" y2="0%" id="SvgjsLinearGradient5299"><stop stop-color="rgba(28, 83, 142, 0)" offset="0"></stop><stop stop-color="#1c538e" offset="1"></stop></linearGradient><linearGradient x1="0%" y1="100%" x2="0%" y2="0%" id="SvgjsLinearGradient5300"><stop stop-color="rgba(61, 69, 149, 0)" offset="0"></stop><stop stop-color="rgba(61, 69, 149, 1)" offset="1"></stop></linearGradient><linearGradient x1="0%" y1="0%" x2="0%" y2="100%" id="SvgjsLinearGradient5301"><stop stop-color="rgba(61, 69, 149, 0)" offset="0"></stop><stop stop-color="rgba(61, 69, 149, 1)" offset="1"></stop></linearGradient><linearGradient x1="0%" y1="100%" x2="0%" y2="0%" id="SvgjsLinearGradient5302"><stop stop-color="rgba(154, 59, 164, 0)" offset="0"></stop><stop stop-color="rgba(154, 59, 164, 1)" offset="1"></stop></linearGradient></defs></svg>